# xmcd
#
# Track frame offsets:
#	150
#	20236
#	33977
#	43831
#	56948
#	67593
#	77456
#	91718
#	100692
#	116064
#	123743
#	131979
#	141833
#	152903
#	164146
#	177414
#	187777
#	203669
#	217289
#	233261
#	242029
#	254615
#
# Disc length: 3569 seconds
#
# Revision: 1
# Processed by: cddbd v1.5.2PL0 Copyright (c) Steve Scherf et al.
# Submitted via: audiograbber 1.83.01
#
DISCID=3e0def16
DTITLE=Waldo - Ragtime+Blues
DYEAR=1900
DGENRE=
TTITLE0=Proctology
TTITLE1=Freakish
TTITLE2=aniceWaltz
TTITLE3=PineappleRag
TTITLE4=SomebodyLovesMe
TTITLE5=MerryRollRoundWaltz
TTITLE6=Harry+JessyRag
TTITLE7=InauguralHalf+Half
TTITLE8=PinkTango
TTITLE9=TheSummerOf'23
TTITLE10=WashingtonRagtimeMud
TTITLE11=TooLateToLove
TTITLE12=BunnyHugRag
TTITLE13=Let'sPrayAgainstSomebody
TTITLE14=CharlestonRag
TTITLE15=Can'tGetItUpBlues
TTITLE16=PortoRico
TTITLE17=RubyLorraine
TTITLE18=219blues
TTITLE19=StoryvilleTheme
TTITLE20=MapleLeafRag
TTITLE21=LoveWillFindAWay
EXTD=
EXTT0=
EXTT1=
EXTT2=
EXTT3=
EXTT4=
EXTT5=
EXTT6=
EXTT7=
EXTT8=
EXTT9=
EXTT10=
EXTT11=
EXTT12=
EXTT13=
EXTT14=
EXTT15=
EXTT16=
EXTT17=
EXTT18=
EXTT19=
EXTT20=
EXTT21=
PLAYORDER=
